<svg xmlns="http://www.w3.org/2000/svg" version="1.1" xmlns:xlink="http://www.w3.org/1999/xlink" viewBox="0 0 7.074937093366793 2.3060710068187316"><g transform="matrix(0.7468277784256331,0,0,0.7468277784256331,1.1875053306655503,0.6818010323788363)"><g transform="matrix(1,0,0,1,0,0)" clip-path="url(#SvgjsClipPath159657)"><g clip-path="url(#SvgjsClipPath1596558c630462-ee97-49a0-b08a-16d177cf334c)"><path d=" M 5.96895493017313 -0.0026835329160482813 C 5.995650810389471 -0.0026835328938435987 6.019717991764324 0.013397821084980666 6.029933811333171 0.038061702593412405 C 6.040149630902019 0.06272558410184415 6.034502219214504 0.09111477053530903 6.015624996321097 0.10999122349548782 C 5.996747773427689 0.1288676764556665 5.968358356675769 0.13451393022326347 5.943694891862456 0.12429710469242278 C 5.919031427049141 0.11408027916158209 5.9029510547164605 0.090012441893463 5.902952143544269 0.0633165616993269 C 5.902956603054001 0.026866512048249525 5.932504880370688 -0.0026805601016372527 5.968954930173233 -0.0026835329160483368 Z M 4.706556742420824 0.8699972466183414 C 4.6087894496653865 0.8382980586775282 4.542575484912252 0.7472220333376348 4.542575484912252 0.6444442047517255 C 4.542575484912252 0.5416663761658161 4.6087894496653865 0.4505903508259227 4.706556742420824 0.4188911628851094 C 4.660161836883214 0.34589078240677995 4.6572071610537 0.25341648954192003 4.698847275588948 0.1776032738647299 C 4.740487390124196 0.10179005818753989 4.8201124290950474 0.05467235324551484 4.9066083405426335 0.05466173834457583 C 4.907302880021802 0.05466173834457583 4.907986651447028 0.05468327445245702 4.908670422872257 0.05468327445245702 C 4.952911893161168 -0.04886843123927467 5.06388820280341 -0.10701447388014398 5.174210190344766 -0.08444629916625393 C 5.284532177886121 -0.061878124452363834 5.363759499500637 0.035177195269918526 5.363782222671389 0.14778386882281797 L 5.363782222671389 0.1993709232387102 L 5.250690736160319 0.1993709232387102 C 5.249012714421243 0.19739678001626831 5.247264700331553 0.19550070518489565 5.24544669389125 0.19368269874459232 C 5.218425201444571 0.1666526090180238 5.177781150170635 0.158562964062535 5.142469088901775 0.17318640871885843 C 5.1071570276329155 0.1878098533751818 5.0841321053679405 0.22226611861325046 5.0841321053679405 0.2604863593852842 C 5.0841321053679405 0.298706600157318 5.1071570276329155 0.3331628653953867 5.142469088901775 0.34778631005171007 C 5.177781150170635 0.36240975470803344 5.218425201444571 0.3543201097525447 5.24544669389125 0.3272900200259761 C 5.248171980677754 0.32456721506968716 5.250730455212748 0.32168241367025247 5.253108164269981 0.31865134875213585 L 5.359822270834736 0.31863519667122503 L 5.363795682738815 0.32260322454833334 L 5.363795682738815 0.4495747325888271 L 5.126395089524062 0.4495747325888271 C 5.10381969904961 0.41775835276834883 5.063767362289452 0.40344156494909367 5.026138702483674 0.41373788667949707 C 4.9885100426778965 0.42403420840990047 4.961326847822608 0.4567486396424627 4.95809550888112 0.4956265090362473 C 4.954864169939632 0.5345043784300317 4.976273553219328 0.5712575878272217 5.011686075375118 0.5876247364646792 C 5.047098597530908 0.6039918851021365 5.088964913286943 0.5964837762572522 5.116483095871747 0.5688309299808865 L 5.315867074649239 0.5688309299808865 L 5.363784914684874 0.616748770016522 L 5.363784914684874 0.6863373186075996 L 5.359811502780795 0.6902945784307674 L 5.069658213311081 0.6902945784307674 C 5.044194964160417 0.6606782473368319 5.0029231039614865 0.6501576253167762 4.966389358202863 0.6639702842070334 C 4.929855612444239 0.6777829430972908 4.905867535956989 0.7129770067786969 4.906367319381584 0.7520315115291465 C 4.906867102806178 0.7910860162795958 4.931747938411568 0.8256547008300175 4.968623185599385 0.83852793933522 C 5.0054984327872 0.8514011778404221 5.046487555128734 0.839827855860982 5.07118458495716 0.8095696199172229 L 5.363776838644419 0.8095696199172229 L 5.363776838644419 0.9057606457685334 L 5.23344569777446 0.9057606457685334 C 5.208709417462408 0.8755333598131627 5.167704316247648 0.8640127251648094 5.130845078493953 0.8769343725876726 C 5.093985840740258 0.8898560200105359 5.0691499512052705 0.924458360095268 5.068702136001843 0.9635143691265013 C 5.068254320798415 1.0025703781577349 5.0922902861227195 1.037733081683806 5.128843553879646 1.0514964750224662 C 5.1653968216365715 1.065259868361127 5.20665529838237 1.054682465799535 5.232078154924006 1.0250303032280188 L 5.363776838644419 1.0250303032280188 L 5.363776838644419 1.141123384775029 C 5.363755247506918 1.2537316979757338 5.284525789561291 1.3507883811878276 5.174201683355146 1.3733543790147358 C 5.063877577149001 1.395920376841644 4.952901408478 1.3377688785841102 4.908665038845328 1.234213211091546 C 4.907981267420059 1.2342132110914492 4.907297495994832 1.234245515253271 4.9066029565156635 1.234245515253271 C 4.820103994012801 1.2342321183354108 4.740477515825876 1.1871106596183951 4.698837587343506 1.1112938603616862 C 4.657197658861137 1.0354770611049768 4.660153976483882 0.9429996688072597 4.706551358393854 0.8699972466183414 Z M 4.999245908593548 0.6864019269312432 C 4.967694214545455 0.6864022836171696 4.940782393131567 0.7092469393015923 4.935658116156818 0.7403797384516491 C 4.930533839182069 0.771512537601706 4.94870413629241 0.8017774467883323 4.978591259305941 0.8118902740589707 C 5.008478382319472 0.8220031013296092 5.041292646245407 0.808989704073246 5.056125461521241 0.781141957514059 L 5.397448543316649 0.781141957514059 L 5.453084386014204 0.7255088068299891 L 5.609280392449465 0.5693047243542725 L 5.639180586229005 0.539404530574733 L 5.762044081691164 0.539404530574733 C 5.764823700185584 0.5439498383088309 5.768131898022232 0.5481499212218975 5.771899543060291 0.5519170092537012 C 5.798079111806936 0.5779802078664116 5.840420607031693 0.5779173311443699 5.866522653277622 0.5517764948252837 C 5.892624699523551 0.5256356585061973 5.892624699523551 0.48329411659579524 5.866522653277622 0.4571532802767089 C 5.840420607031693 0.4310124439576224 5.798079111806936 0.43094956723558075 5.771899543060292 0.4570127658482913 C 5.768131732785362 0.4607846497649173 5.764823570728237 0.46498920536497157 5.7620440816911636 0.4695387045946853 L 5.639180586229006 0.4695387045946853 L 5.609280392449467 0.43963581880166047 L 5.453084386014206 0.2834425043798844 L 5.397448543316651 0.22779858564187383 L 5.236046182801114 0.22779858564187383 C 5.221064469430353 0.20151008318338143 5.19012784398301 0.18877332322422374 5.160979932458036 0.19689344334439984 C 5.131832020933063 0.20501356346457583 5.111936875752383 0.23191120363181117 5.112705308863849 0.26215928799408067 C 5.113473741975317 0.2924073723563502 5.134708976844126 0.31826012169550066 5.164231596353391 0.32488975474303655 C 5.193754215862655 0.3315193877905724 5.2240042142308 0.3172282210413642 5.237631778743866 0.2902129182950317 L 5.371602521845745 0.2902129182950317 L 5.408954208952173 0.3275753734554018 L 5.565150215387435 0.48376599586369273 L 5.585846415061254 0.5044648875509962 L 5.565150215387435 0.5251772393057254 L 5.4829145874431315 0.6074074832230583 L 5.409121113788252 0.5336220856086349 L 5.3534718110232715 0.4779943189515352 L 5.10990112290056 0.4779943189515352 C 5.0983716864108155 0.45100131592874204 5.070060384156509 0.43520757699832757 5.041035222160825 0.43957679764780355 C 5.01201006016514 0.44394601829727975 4.98960296509235 0.4673745076880993 4.986531025522755 0.49656548754901364 C 4.98345908595316 0.5257564674099279 5.00049829189311 0.5533361245084628 5.027978086290368 0.5636516961282997 C 5.0554578806876265 0.5739672677481363 5.0864367058241005 0.564412979815458 5.103332609996798 0.5404113436181784 L 5.327631173579334 0.5404113436181783 L 5.364990936726219 0.577768414751578 L 5.438770950313672 0.6515618884064569 L 5.408954208952173 0.6813570936600756 L 5.371602521845745 0.7187141647934755 L 5.055121340491281 0.7187141647934755 C 5.043628828935039 0.69871175926486 5.022317497536164 0.6863818885138273 4.999248600607033 0.6863884668638174 Z M 5.161574321747977 0.9001477976519996 C 5.13027397549195 0.90015112288011 5.103502777141335 0.9226465458457718 5.098107099293435 0.953478320808721 C 5.092711421445536 0.9843100957716697 5.110251945232571 1.0145602385946126 5.139690905538528 1.0251931734156545 C 5.169129865844485 1.0358261082366966 5.201952145348276 1.023766295480809 5.217503593915412 0.996602640824855 L 5.322276758757376 0.996602640824855 L 5.327701165929949 0.9994561751191118 L 5.322276758757376 0.996602640824855 L 5.47080321877345 0.996602640824855 L 5.52644175348449 0.9409641061138145 L 5.540055265678884 0.9273613619733614 L 5.540389075351042 0.9277032476859755 L 5.564743721351176 0.9033593697397815 L 5.720939727786438 0.7471633633045202 L 5.7582941069063525 0.7098062921711203 L 5.892262157994747 0.7098062921711203 C 5.905890531136368 0.7368144601814515 5.936135890300233 0.7510994272686685 5.9656520759487295 0.7444685541342302 C 5.995168261597227 0.7378376809997916 6.016397477007965 0.7119888425601537 6.0171644540554166 0.6817467288779021 C 6.017931431102868 0.6515046151956505 5.998039780704635 0.6246129012289185 5.968897657725229 0.6164943815353597 C 5.939755534745823 0.6083758618418008 5.908824954913161 0.6211093321798287 5.893845061924013 0.6473919595179625 L 5.732442701408476 0.6473919595179625 L 5.676806858710921 0.7030358782559731 L 5.663196038530012 0.7166332383694558 L 5.662862228857854 0.7163021207107827 L 5.638504890844234 0.740635230603036 L 5.4823088844089725 0.8968339290517824 L 5.444951813275574 0.9341910001851823 L 5.218402726419453 0.9341910001851823 C 5.207193082344789 0.9132262719059379 5.185347749932528 0.9001397691259545 5.1615743217479775 0.9001477976519996 Z M 5.9821188761155035 0.8069152946208668 C 6.003091603760263 0.8069212414316204 6.020089510861415 0.8239259777540081 6.020087033186013 0.8448987060955224 C 6.020084555510611 0.8658714344370367 6.003082631074164 0.8828721540885887 5.98210990260973 0.8828731455486059 C 5.961137174145298 0.882874137008623 5.944133642408503 0.8658750249233073 5.944129181813094 0.8449022969097911 C 5.944128467646337 0.8348268321417975 5.94813079839691 0.8251638665288062 5.955255480304845 0.8180396894877903 C 5.962380162212779 0.8109155124467743 5.972043411423431 0.8069138664644706 5.98211887611551 0.8069152946208668 Z M 6.043227582228364 0.9566262405704062 C 6.0796799147298195 0.9566262405704062 6.109230368857225 0.9861766946978114 6.109230368857225 1.0226290271992666 C 6.109230368857225 1.0590813597007218 6.0796799147298195 1.0886318138281268 6.043227582228364 1.088631813828127 C 6.006775249726909 1.088631813828127 5.977224795599504 1.059081359700722 5.977224795599504 1.0226290271992666 C 5.977226282241423 0.9861773105028335 6.006775865531901 0.9566277272123422 6.043227582228349 0.9566262405704062 Z M 6.043227582228364 0.19838295428966096 C 6.079676941035357 0.19838592792692367 6.109222573920474 0.22793638196507815 6.109219600364071 0.264385740772077 C 6.109216626807667 0.3008350995790758 6.079666172835056 0.33038073252974776 6.043216814028051 0.3303777590542035 C 6.006767455221046 0.3303747855786593 5.97722182220482 0.3008243316715927 5.977224795599504 0.2643749728645807 C 5.977225509472883 0.24687115444978464 5.984179927455168 0.23008460918619755 5.996558005835539 0.2177085502329516 C 6.008936084215912 0.2053324912797057 6.025723763930242 0.19838081226181276 6.043227582228447 0.19838295428966102 Z M 5.799778034712484 1.261149498023841 C 5.836227828557104 1.2611554449145774 5.865771820728802 1.2907078734881452 5.865767360724976 1.327157667545028 C 5.865762900721151 1.3636074616019103 5.836211677352517 1.3931526592735157 5.799761883144026 1.3931496861566093 C 5.7633120889355345 1.3931467130397028 5.733765685813186 1.3635966949251765 5.733767172043168 1.327146900625731 C 5.733766457419275 1.3096407498278353 5.740721353543744 1.2928515970318297 5.753101333612784 1.2804741413255916 C 5.765481313681823 1.2680966856193536 5.7822718844243095 1.2611452134118732 5.799778034712474 1.261149498023841 Z M 5.799778034712484 -0.1311733365621655 C 5.8362267778219135 -0.13116887657576665 5.865771540232515 -0.10161929328527336 5.865770053287403 -0.0651705499333052 C 5.865767080771166 -0.02873047177653472 5.8362288805596325 0.0008101387329826903 5.799788802766571 0.0008160846146441636 C 5.763337521294142 0.0008205452451141848 5.733783886684732 -0.02872465270011955 5.733777940097109 -0.06517593396027553 C 5.733783886241439 -0.10162895700077934 5.76333577927124 -0.13117723453043872 5.799788802766421 -0.13117872058913588 Z M 5.600641721175626 -0.0026835329160482813 C 5.627337846342873 -0.0026846217316446597 5.651405853909227 0.013396041888734334 5.6616225216926725 0.03805983720765324 C 5.671839189476117 0.06272363252657212 5.666192442289557 0.09111326050752619 5.647315431136691 0.10999027166039152 C 5.6284384199838255 0.12886728281325688 5.600048792002871 0.13451402999981832 5.575384996683953 0.12429736221637344 C 5.550721201365032 0.11408069443292848 5.534640537744654 0.0900126868665733 5.534641626560251 0.0633165616993269 C 5.534644599612071 0.026866947505107208 5.564192106981684 -0.0026805598643815653 5.600641721175765 -0.0026835329160483368 Z M 5.824549942802817 1.0350392093657992 C 5.839912563153872 1.0350370316607165 5.85376369173497 1.0442895750256933 5.859644221035391 1.0584821605526489 C 5.865524750335812 1.072674746079604 5.862276533390987 1.089012200237772 5.851414290271698 1.0998759833362375 C 5.840552047152408 1.110739766434703 5.824215053637131 1.113990299402187 5.810021634608153 1.1081117821519897 C 5.795828215579173 1.1022332649017923 5.786573708722181 1.088383448133157 5.786573708567833 1.0730208276277533 C 5.786576680347365 1.052047492539823 5.8035766083469325 1.0350451543994774 5.82454994280282 1.0350392093657994 Z M 5.762116766055263 0.8883083223443184 C 5.777479141534862 0.8883094113338363 5.791328132052109 0.8975646084913125 5.79720580108292 0.9117581136371999 C 5.803083470113729 0.9259516187830874 5.799832272696887 0.9422881706875523 5.788968277929203 0.9531498556051798 C 5.778104283161519 0.9640115405228071 5.761767040299015 0.9672592640981963 5.747574785288436 0.9613785771249943 C 5.733382530277858 0.9554978901517921 5.724130278148067 0.9416469319431577 5.724132455779824 0.9262845565793021 C 5.724133169678041 0.9162114525926026 5.728135563604381 0.9065512396904409 5.7352590810025115 0.899429236860156 C 5.742382598400644 0.8923072340298708 5.752043662144532 0.8883068943201475 5.762116766055285 0.8883083223443184 Z M 5.977835882660633 0.34280947776785475 C 5.993200081753846 0.3428073001476542 6.0070525325038435 0.3520610820331299 6.012933162922036 0.36625533454612086 C 6.01881379334023 0.3804495870591119 6.015564359155972 0.3967886215607972 6.004700229680539 0.40765275103622967 C 5.993836100205107 0.41851688051166214 5.977497065703422 0.42176631469591963 5.963302813190431 0.4158856842777273 C 5.949108560677439 0.4100050538595349 5.939854778791964 0.3961526031095368 5.939856956412164 0.38078840401632374 C 5.939856242354361 0.3707155476221283 5.943857352720103 0.36105504423606655 5.950979937800248 0.35393245915592497 C 5.958102522880393 0.34680987407578345 5.967763026266458 0.34280876371004676 5.977835882660643 0.34280947776785475 Z M 5.756086655848532 0.18575741104431642 C 5.782783025981495 0.18575741124416206 5.806850547826775 0.201839347899675 5.817066051764548 0.2265038904166889 C 5.827281555702321 0.2511684329337027 5.821633157070283 0.2795580417238666 5.802754817783387 0.29843407107447634 C 5.783876478496492 0.3173101004250859 5.7554861787437135 0.3229550250758123 5.730822886447526 0.3127365030990776 C 5.7061595941513374 0.3025179811223428 5.690080602676298 0.27844849156584 5.690083869219671 0.2517521216327214 C 5.690083154925136 0.23424761784480297 5.6970370283925655 0.2174599659866921 5.709415339008805 0.2050831699691978 C 5.721793649625044 0.19270637395170337 5.738582152279111 0.18575455478370612 5.756086655848551 0.18575741104431642 Z M 6.239655730199164 0.5751033214012814 C 6.2692228862095245 0.5751062950667681 6.293189391375698 0.5990776214164802 6.29318641780989 0.6286447774268494 C 6.293183444244084 0.6582119334372186 6.269212117975171 0.6821784386842065 6.2396449619647925 0.6821754652180806 C 6.210077805954413 0.6821724917519546 6.186111300626609 0.65820116556384 6.186114273993056 0.6286340095534507 C 6.1861157018539945 0.6144353603882662 6.191757462689641 0.6008188181506114 6.201798433498938 0.5907798667431627 C 6.211839404308236 0.5807409153357137 6.22545708103403 0.5751018933967381 6.239655730199182 0.5751033214012814 Z M 5.600641721175626 1.145088720638652 C 5.627336757537266 1.1450887207274751 5.65140312755897 1.1611697101410745 5.661618372659802 1.1858329162156955 C 5.671833617760634 1.2104961222903168 5.666185942935681 1.2388843620316852 5.64730893176005 1.2577598332953224 C 5.628431920584418 1.27663530455896 5.600043220203723 1.282280663470219 5.575380847564499 1.2720634063944023 C 5.550718474925274 1.2618461493185855 5.534639448884649 1.2377784674998742 5.5346416265602505 1.2110834312270569 C 5.534644599904753 1.1746346880946275 5.564192977922012 1.1450887205173494 5.6006417211756725 1.145088720638652 Z M 5.96895493017313 1.166702896910906 C 5.995648877548156 1.1667050749417949 6.019712953844284 1.1827873717984057 6.029925770116957 1.207450405167906 C 6.040138586389632 1.2321134385374062 6.034488825977925 1.2605000594610085 6.015611044982936 1.279373220720049 C 5.996733263987948 1.2982463819790893 5.968345261146366 1.3038891946497686 5.9436847280830225 1.2936703424521792 C 5.919024195019678 1.2834514902545897 5.9029477882819315 1.2593834785674447 5.902952143544269 1.2326895314588553 C 5.902954285312335 1.2151866459283678 5.909909333631189 1.1984014838495318 5.922287257231469 1.186026589352041 C 5.9346651808317485 1.1736516948545501 5.951452044642797 1.1667007548807269 5.968954930173191 1.1667028969109061 Z M 6.198957870330695 0.7750095507948916 C 6.225652661729219 0.7750095508170977 6.249718861498268 0.7910902489078938 6.259934264394575 0.8157531244798295 C 6.270149667290882 0.8404160000517654 6.264502485920614 0.8688040286022368 6.245626032937668 0.887679711651953 C 6.226749579954723 0.9065553947016687 6.198361321085796 0.9122014181520177 6.17369886220898 0.9019850092937163 C 6.149036403332162 0.8917686004354148 6.1329566868875105 0.8677017447730997 6.132957775715321 0.841006953396782 C 6.132963721274177 0.8045590061875478 6.162509922909271 0.775014009683656 6.1989578703306965 0.7750095507948919 Z M 6.198957870330695 0.3529018363236748 C 6.225651572869207 0.35290292524030764 6.249716135058496 0.36898394907874155 6.25993011527511 0.393646235358299 C 6.270144095491724 0.4183085216378565 6.264495986521202 0.44669516191302083 6.245619533561028 0.4655693050735089 C 6.226743080600855 0.4844434482339969 6.198355749370325 0.49008808344476473 6.173694713176121 0.47987108534217227 C 6.149033676981917 0.4696540872395798 6.132955598081913 0.44558755737049105 6.132957775715321 0.41889385489859454 C 6.132960749059822 0.38244511176616514 6.162509127077082 0.3528991441888871 6.198957870330742 0.35289914431018965 Z" fill="#000000" transform="matrix(1,0,0,1,0,0)" fill-rule="evenodd"></path></g></g><g><path d=" M 0.05859375 1.008544921875 Q 0.05859375 0.96826171875 0.0633544921875 0.9342041015625 Q 0.068115234375 0.900146484375 0.07763671875 0.860595703125 L 0.224853515625 0.860595703125 L 0.224853515625 0.92138671875 Q 0.224853515625 0.971923828125 0.2310791015625 1.0107421875 Q 0.2373046875 1.049560546875 0.2515869140625 1.0762939453125 Q 0.265869140625 1.10302734375 0.2896728515625 1.1165771484375 Q 0.3134765625 1.130126953125 0.347900390625 1.130126953125 Q 0.402099609375 1.130126953125 0.4306640625 1.1004638671875 Q 0.459228515625 1.07080078125 0.459228515625 1.013671875 Q 0.459228515625 0.984375 0.4552001953125 0.9598388671875 Q 0.451171875 0.935302734375 0.4412841796875 0.9111328125 Q 0.431396484375 0.886962890625 0.41455078125 0.8602294921875 Q 0.397705078125 0.83349609375 0.371337890625 0.800537109375 L 0.173583984375 0.5654296875 Q 0.120849609375 0.498046875 0.09228515625 0.4295654296875 Q 0.063720703125 0.361083984375 0.063720703125 0.283447265625 Q 0.063720703125 0.22119140625 0.0831298828125 0.169189453125 Q 0.1025390625 0.1171875 0.13916015625 0.0794677734375 Q 0.17578125 0.041748046875 0.2296142578125 0.0208740234375 Q 0.283447265625 0 0.3515625 0 Q 0.434326171875 0 0.4896240234375 0.0234375 Q 0.544921875 0.046875 0.577880859375 0.0849609375 Q 0.61083984375 0.123046875 0.6243896484375 0.1702880859375 Q 0.637939453125 0.217529296875 0.637939453125 0.26513671875 Q 0.637939453125 0.305419921875 0.6317138671875 0.3394775390625 Q 0.62548828125 0.37353515625 0.617431640625 0.41455078125 L 0.470947265625 0.41455078125 L 0.470947265625 0.355224609375 Q 0.470947265625 0.255615234375 0.4423828125 0.2025146484375 Q 0.413818359375 0.1494140625 0.349365234375 0.1494140625 Q 0.2958984375 0.1494140625 0.26953125 0.1790771484375 Q 0.2431640625 0.208740234375 0.2431640625 0.258544921875 Q 0.2431640625 0.284912109375 0.2471923828125 0.30615234375 Q 0.251220703125 0.327392578125 0.2589111328125 0.3453369140625 Q 0.2666015625 0.36328125 0.277587890625 0.380126953125 Q 0.28857421875 0.39697265625 0.302490234375 0.415283203125 L 0.52294921875 0.681884765625 Q 0.5830078125 0.76025390625 0.615234375 0.8323974609375 Q 0.6474609375 0.904541015625 0.6474609375 0.985107421875 Q 0.6474609375 1.0517578125 0.6265869140625 1.105224609375 Q 0.605712890625 1.15869140625 0.56689453125 1.196044921875 Q 0.528076171875 1.2333984375 0.47314453125 1.2535400390625 Q 0.418212890625 1.273681640625 0.349365234375 1.273681640625 Q 0.264404296875 1.273681640625 0.2083740234375 1.2509765625 Q 0.15234375 1.228271484375 0.1190185546875 1.19091796875 Q 0.085693359375 1.153564453125 0.0721435546875 1.10595703125 Q 0.05859375 1.058349609375 0.05859375 1.008544921875 M 0.9448242187500001 0.010986328125 L 1.1630859375 0.010986328125 L 1.39453125 1.261962890625 L 1.20263671875 1.261962890625 L 1.168212890625 1.037841796875 L 0.9396972656250001 1.037841796875 L 0.9067382812500001 1.261962890625 L 0.7141113281250001 1.261962890625 L 0.9448242187500001 0.010986328125 M 1.146240234375 0.89501953125 L 1.058349609375 0.271728515625 L 1.05029296875 0.271728515625 L 0.9616699218750001 0.89501953125 L 1.146240234375 0.89501953125 M 1.784912109375 1.27294921875 Q 1.755615234375 1.27294921875 1.7215576171875 1.2681884765625 Q 1.6875 1.263427734375 1.6534423828125 1.248046875 Q 1.619384765625 1.232666015625 1.5882568359375 1.2044677734375 Q 1.55712890625 1.17626953125 1.5333251953125 1.130126953125 Q 1.509521484375 1.083984375 1.4952392578125 1.0162353515625 Q 1.48095703125 0.948486328125 1.48095703125 0.854736328125 L 1.48095703125 0.41162109375 Q 1.48095703125 0.317138671875 1.49560546875 0.2501220703125 Q 1.51025390625 0.18310546875 1.534423828125 0.1373291015625 Q 1.55859375 0.091552734375 1.590087890625 0.064453125 Q 1.62158203125 0.037353515625 1.6552734375 0.0230712890625 Q 1.68896484375 0.0087890625 1.7222900390625 0.00439453125 Q 1.755615234375 0 1.7841796875 0 Q 1.85888671875 0 1.9090576171875 0.0208740234375 Q 1.959228515625 0.041748046875 1.9896240234375 0.0780029296875 Q 2.02001953125 0.1142578125 2.0328369140625 0.16259765625 Q 2.045654296875 0.2109375 2.045654296875 0.26513671875 Q 2.045654296875 0.305419921875 2.0416259765625 0.3394775390625 Q 2.03759765625 0.37353515625 2.029541015625 0.41455078125 L 1.875732421875 0.41455078125 L 1.875732421875 0.350830078125 Q 1.875732421875 0.24755859375 1.85302734375 0.1962890625 Q 1.830322265625 0.14501953125 1.786376953125 0.14501953125 Q 1.760009765625 0.14501953125 1.740234375 0.1552734375 Q 1.720458984375 0.16552734375 1.707275390625 0.1900634765625 Q 1.694091796875 0.214599609375 1.6871337890625 0.2548828125 Q 1.68017578125 0.295166015625 1.68017578125 0.355224609375 L 1.68017578125 0.926513671875 Q 1.68017578125 0.985107421875 1.6856689453125 1.02392578125 Q 1.691162109375 1.062744140625 1.70361328125 1.086181640625 Q 1.716064453125 1.109619140625 1.7362060546875 1.1195068359375 Q 1.75634765625 1.12939453125 1.784912109375 1.12939453125 Q 1.80322265625 1.12939453125 1.820068359375 1.1209716796875 Q 1.8369140625 1.112548828125 1.8497314453125 1.0946044921875 Q 1.862548828125 1.07666015625 1.8702392578125 1.0491943359375 Q 1.8779296875 1.021728515625 1.8779296875 0.984375 L 1.8779296875 0.862060546875 L 2.051513671875 0.862060546875 L 2.051513671875 0.977783203125 Q 2.051513671875 1.128662109375 1.982666015625 1.200439453125 Q 1.913818359375 1.272216796875 1.784912109375 1.27294921875 M 2.200927734375 0.010986328125 L 2.390625 0.010986328125 L 2.390625 0.53466796875 L 2.615478515625 0.53466796875 L 2.615478515625 0.010986328125 L 2.80517578125 0.010986328125 L 2.80517578125 1.261962890625 L 2.615478515625 1.261962890625 L 2.615478515625 0.68408203125 L 2.390625 0.68408203125 L 2.390625 1.261962890625 L 2.200927734375 1.261962890625 L 2.200927734375 0.010986328125 M 3.0205078125 0.010986328125 L 3.210205078125 0.010986328125 L 3.210205078125 1.261962890625 L 3.0205078125 1.261962890625 L 3.0205078125 0.010986328125 M 3.424072265625 0.010986328125 L 3.577880859375 0.010986328125 L 3.881103515625 0.84814453125 L 3.885498046875 0.84814453125 Q 3.88330078125 0.81884765625 3.879638671875 0.782958984375 Q 3.8759765625 0.7470703125 3.873046875 0.7012939453125 Q 3.8701171875 0.655517578125 3.867919921875 0.59765625 Q 3.86572265625 0.539794921875 3.86572265625 0.46728515625 L 3.86572265625 0.010986328125 L 4.03564453125 0.010986328125 L 4.03564453125 1.261962890625 L 3.88037109375 1.261962890625 L 3.57861328125 0.44677734375 L 3.57275390625 0.44677734375 Q 3.574951171875 0.479736328125 3.57861328125 0.5181884765625 Q 3.582275390625 0.556640625 3.585205078125 0.608642578125 Q 3.588134765625 0.66064453125 3.59033203125 0.7298583984375 Q 3.592529296875 0.799072265625 3.592529296875 0.894287109375 L 3.592529296875 1.261962890625 L 3.424072265625 1.261962890625 L 3.424072265625 0.010986328125" fill="#0e0904" fill-rule="nonzero"></path></g><g></g></g><defs><clipPath id="SvgjsClipPath159657"><path d=" M 4.542578125 -0.1311787205891357 h 1.7506082933513327 v 1.5243203318032714 h -1.7506082933513327 Z"></path></clipPath><clipPath id="SvgjsClipPath1596558c630462-ee97-49a0-b08a-16d177cf334c"><path d=" M 4.542578125 -0.13117872058913588 L 6.293186418351333 -0.13117872058913588 L 6.293186418351333 1.3931416112141357 L 4.542578125 1.3931416112141357 Z"></path></clipPath></defs></svg>